<svg width="106" height="78" viewBox="0 0 106 78" fill="none" xmlns="http://www.w3.org/2000/svg">
<path d="M28.7338 0C28.5885 0.319054 28.4332 0.633746 28.2978 0.957163C26.9319 4.22119 25.7563 7.58145 24.7784 10.9809C24.4213 12.222 24.1065 13.4748 23.7705 14.7218C22.715 19.1079 21.6454 23.4957 20.8394 27.9366C20.4549 30.0551 19.9199 33.4062 19.805 35.6288C19.7573 36.5521 19.8325 37.4777 19.8462 38.4021C20.076 39.0073 20.0589 39.7797 20.5355 40.2178C21.3304 40.9484 22.349 41.5636 23.4214 41.688C25.1187 41.885 27.2967 38.8696 27.8853 38.1507C28.7963 37.0381 29.6043 35.845 30.4759 34.7012C31.3707 33.527 32.2814 32.365 33.1842 31.1969L33.1027 31.1484C32.2 32.3163 31.3788 33.552 30.3947 34.6521C28.7668 36.4718 26.3443 38.683 24.1516 39.8939C23.4998 40.2538 22.7006 40.2695 22.0307 40.5943C21.9347 40.6409 22.0986 41.0081 22.0476 40.9143C21.7292 40.3275 21.493 39.6998 21.2157 39.0925C21.149 38.1479 21.009 37.2056 21.0155 36.2587C21.0314 33.9363 21.4732 30.7091 21.8506 28.477C22.6022 24.032 23.6797 19.645 24.7998 15.2817C25.1495 14.0438 25.478 12.7998 25.8488 11.5681C26.9613 7.87214 28.2647 4.19798 30.1867 0.837031L28.7338 0Z" fill="white"/>
<path d="M33.6455 27.1249C33.1545 28.457 32.6956 29.8208 32.4609 31.2258C32.2035 33.6515 32.3709 32.4801 31.9731 34.7422L32.5924 35.0769C33.7669 31.4645 32.3301 35.6936 33.8067 31.9594C34.3202 30.6608 34.6327 29.2861 35.2033 28.0083L33.6455 27.1249Z" fill="white"/>
<path d="M33.4228 29.9283C32.497 31.2461 32.0073 32.801 31.5369 34.3232C31.323 35.0153 31.08 35.701 30.927 36.4091C30.7635 37.1657 30.7021 37.9407 30.5896 38.7066C30.4614 39.3827 30.3331 40.0588 30.2049 40.7349L30.5094 40.9021C30.7847 40.3067 31.06 39.7113 31.3352 39.116C31.6718 38.4733 32.0555 37.8531 32.3448 37.1879C32.6303 36.5315 32.8157 35.8359 33.0553 35.1614C33.2692 34.5592 33.4911 33.9599 33.7056 33.3579C34.0244 32.4631 34.3005 31.5422 34.7408 30.6957L33.4228 29.9283Z" fill="white"/>
<path d="M34.1944 30.7021C34.8347 29.7549 35.7304 29.0444 36.7651 28.5655C37.0971 28.4119 37.4343 28.2565 37.7912 28.176C38.1278 28.1 38.4796 28.126 38.8238 28.101C39.1438 28.2674 39.8893 28.2555 39.7838 28.6004C39.6782 28.9456 38.8032 28.1344 38.7071 28.4824C38.5441 29.0723 39.2069 29.6084 39.3402 30.2057C39.5289 31.0514 39.6032 31.9203 39.6669 32.7844C39.8548 35.3344 39.7468 36.8655 39.6774 39.4321L39.775 39.4833C39.9301 38.7917 40.9602 34.2803 41.0669 33.4905C41.1607 32.7966 41.4203 30.1645 40.76 29.3568C39.3064 27.5791 38.6023 27.4218 36.9884 26.7981C36.6427 26.8492 36.2847 26.8465 35.9514 26.9515C35.2747 27.1649 34.674 27.6334 34.1389 28.0751C33.5436 28.5667 32.9531 29.1004 32.6249 29.8135L34.1944 30.7021Z" fill="white"/>
<path d="M54.3743 24.1276C53.788 24.0425 53.3339 23.9527 52.7222 23.9856C51.4974 24.0513 50.2737 24.4852 49.1946 25.0497C48.772 25.2707 48.3792 25.5446 47.9715 25.7921C47.5803 26.1197 47.1707 26.4266 46.7978 26.775C45.5424 27.9483 44.243 29.5716 43.5215 31.144C43.3783 31.4561 43.2882 31.7899 43.1715 32.1129C43.0925 32.6816 42.9298 33.1599 43.195 33.7142C43.6463 34.6573 46.2194 35.5888 46.3004 35.6219C46.4841 35.6968 48.0301 35.7247 48.1872 35.7294C47.6578 35.6697 50.8291 36.1324 50.177 36.381C49.8308 36.513 49.372 35.665 49.1481 35.9602C48.9249 36.2545 49.6584 36.5041 49.8396 36.8259C50.3634 37.7565 50.2626 38.1698 50.3311 39.2272C50.2033 39.711 50.1559 40.2236 49.9478 40.6787C49.131 42.4653 47.4907 43.5866 45.9386 44.6636C44.1115 45.9314 44.8657 45.5096 42.9061 46.2765L42.9841 46.3306C44.57 46.1607 45.7759 46.1297 47.301 45.5423C49.0954 44.8511 50.9254 43.436 51.8009 41.6892C52.0336 41.2249 52.1083 40.6971 52.2621 40.201C52.2397 38.9845 52.3799 38.7665 51.8261 37.6816C51.1109 36.2802 49.8903 35.8521 48.4611 35.0243C48.158 34.8488 47.823 34.7282 47.4859 34.6333C47.1512 34.539 46.8002 34.5178 46.4574 34.46C46.1246 34.4387 45.7907 34.4308 45.4591 34.3959C44.3294 34.2771 43.9288 33.9444 45.7091 35.0976C45.9028 35.2231 45.3016 34.8513 45.1727 34.6599C44.8412 34.1675 44.9648 33.6535 44.9893 33.111C45.2219 32.2755 45.2977 31.8459 45.7134 31.0517C45.9145 30.6676 46.1551 30.3046 46.404 29.9497C47.2596 28.7294 48.2917 27.657 49.498 26.7791C49.9001 26.5376 50.2875 26.2697 50.7044 26.0545C52.2541 25.2548 54.0028 24.8233 55.734 25.1603L54.3743 24.1276Z" fill="white"/>
<path d="M62.2735 26.8624C62.0683 26.9978 61.849 27.114 61.658 27.2687C59.908 28.6859 58.4033 30.7171 57.3061 32.6628C56.9953 33.2139 56.734 33.7916 56.448 34.3561C56.0628 35.2994 55.2013 36.8957 55.7486 37.9733C56.2209 38.9031 58.9133 39.5869 59.0499 39.6104C59.4266 39.6749 59.7662 39.3432 60.1243 39.2096C60.5089 38.9651 60.9192 38.7569 61.278 38.476C63.1554 37.0067 64.3546 34.8852 65.569 32.8847L65.4874 32.8362C63.839 34.6178 62.1612 36.4714 59.9909 37.6333C59.5658 37.8609 59.1063 38.0174 58.664 38.2094C56.6154 38.6308 57.6814 38.0604 58.3232 39.3584C58.4339 39.5823 57.8486 39.1327 57.7138 38.9224C57.078 37.9302 57.8566 36.256 58.1866 35.3463C58.4656 34.784 58.7224 34.2102 59.0236 33.6595C59.6913 32.4386 60.3529 31.4146 61.1991 30.3134C61.9328 29.3586 62.7201 28.466 63.767 27.8501L62.2735 26.8624Z" fill="white"/>
<path d="M64.8729 26.835C64.7416 27.1342 64.586 27.424 64.479 27.7328C64.2601 28.3644 63.5045 31.1611 63.4014 31.5542C62.9189 33.3949 62.38 35.5561 62.0015 37.4115C61.7842 38.4764 61.6103 39.5497 61.4148 40.6189C61.3385 41.6889 61.2623 42.7589 61.1861 43.8289L61.5903 44.0455C61.9335 43.1199 62.2766 42.1942 62.6197 41.2685C63.474 38.3515 64.2816 35.4201 65.1457 32.5062C66.4108 28.2406 65.2755 32.1491 66.3534 28.7706C66.4533 28.4576 66.5318 28.1383 66.621 27.8222L64.8729 26.835Z" fill="white"/>
<path d="M71.9853 27.7496C71.3969 29.3703 70.8365 31.0189 70.4149 32.6919C70.2125 33.4951 69.5448 36.8213 69.3733 37.6635L69.729 37.8588C70.0554 37.1334 70.3799 36.407 70.7083 35.6824C71.0501 34.9282 71.4169 34.185 71.7396 33.4225C72.4002 31.8615 72.8952 30.2294 73.6429 28.7049L71.9853 27.7496Z" fill="white"/>
<path d="M72.8568 29.2577C73.4869 28.4616 74.0902 27.6283 74.8808 26.9778C75.5981 26.3876 75.8202 26.3261 76.6316 25.9067C77.2333 25.7158 77.6521 25.5195 78.2912 25.5459C78.534 25.5559 79.1852 25.8559 79.005 25.6929C78.6423 25.3648 78.1847 25.1041 77.7039 25.0146C77.4901 24.9748 78.0113 25.3316 78.1088 25.526C78.2272 25.7624 78.2632 26.0317 78.3404 26.2845C78.3581 26.6075 78.4051 26.9303 78.3936 27.2536C78.3439 28.65 77.9352 30.0409 77.5358 31.3673C77.2976 32.1584 76.6651 34.0625 76.4094 34.8393C76.2286 35.4178 76.0285 35.9905 75.8669 36.5746C75.3079 38.5956 74.8466 40.8678 74.9561 42.9759C74.9748 43.3348 75.0406 43.6897 75.0828 44.0465C75.1873 44.3069 75.2522 44.5869 75.3963 44.8275C75.9478 45.7484 78.2392 46.5155 78.5207 46.5985C78.7756 46.6736 79.0374 46.45 79.2649 46.3126C80.1241 45.7937 80.4302 45.2588 81.0826 44.4684C81.4414 43.867 81.8353 43.2852 82.1591 42.6643C82.5833 41.851 82.9442 41.0062 83.3238 40.1713C83.7709 39.1879 84.2048 38.1986 84.6391 37.2096C85.1015 36.1568 85.5326 35.0901 86.0141 34.0459C86.4875 33.0193 87.0069 32.0145 87.5033 30.9988L87.421 30.9515C85.0317 34.7475 86.2065 32.9107 83.7473 36.6979C82.2858 38.9486 80.8351 41.2106 79.1156 43.2783C78.4762 43.9413 78.0522 44.5176 77.2375 44.9378C77.0318 45.0439 76.4443 44.9321 76.5694 45.1268C76.9001 45.6414 77.5539 45.8533 78.053 46.207C78.2384 46.3383 77.6523 45.9715 77.5107 45.7937C77.3379 45.5769 77.259 45.2997 77.1332 45.0527C77.0672 44.6955 76.9705 44.3426 76.9352 43.981C76.8447 43.0553 76.9099 42.0121 77.0205 41.098C77.237 39.3076 77.6652 37.5488 78.2193 35.8349C78.5963 34.6767 78.9908 33.5242 79.3616 32.3641C79.7872 31.0327 80.2467 29.6477 80.3501 28.2421C80.3747 27.9078 80.341 27.5717 80.3365 27.2365C80.2717 26.96 80.2504 26.6695 80.142 26.4069C80.0502 26.1848 79.9423 25.9427 79.7454 25.805C78.9859 25.2738 78.1679 24.8221 77.325 24.4368C76.7796 24.1875 75.4999 24.6393 75.014 24.8501C74.7194 25.0176 74.4134 25.1666 74.1302 25.3527C72.9751 26.112 72.0425 27.1891 71.3447 28.374L72.8568 29.2577Z" fill="white"/>
<path d="M1.56379 61.2589C5.69209 60.1281 9.86212 59.1553 14.0698 58.3667C15.8092 58.0408 17.5568 57.7601 19.3003 57.4568C21.3653 57.1565 23.4264 56.8281 25.4953 56.5558C33.4662 55.5066 41.4777 54.7736 49.4832 54.0513C55.6195 53.4977 61.7583 52.9721 67.8959 52.4322C76.171 51.7191 84.4401 50.92 92.7271 50.3512C95.2439 50.1784 100.344 49.8272 103.138 49.94C103.922 49.9716 104.692 50.1569 105.469 50.2654C104.823 50.0906 104.193 49.6434 103.53 49.7412C102.696 49.8643 102.047 50.5494 101.273 50.8847C99.8042 51.5212 98.3034 52.0817 96.8084 52.6538C94.6406 53.4834 92.4587 54.2759 90.2849 55.0896C80.6227 58.706 83.6523 57.5692 73.5583 61.4151C65.4101 64.7149 57.1946 67.8705 49.296 71.7479C49.0066 71.89 43.1238 74.7137 42.1538 75.9824C41.9607 76.2349 42.3763 76.5779 42.4876 76.8756C44.0549 77.1447 45.5993 77.6782 47.1896 77.6828C49.111 77.6883 51.0015 77.194 52.9011 76.9055C56.0275 76.4308 59.1383 75.8558 62.2667 75.3935C66.5905 74.7546 70.9263 74.1993 75.2561 73.6022L75.1786 73.5474C70.7157 74.0507 66.2519 74.5452 61.79 75.0572C58.5015 75.4345 55.2178 75.8537 51.9275 76.2153C49.944 76.4333 47.9343 76.4486 45.9692 76.796C45.3079 76.9129 44.7363 77.329 44.1199 77.5956C43.8656 77.3079 43.2122 77.0882 43.357 76.7326C44.0563 75.0163 49.3311 72.3839 49.8483 72.1132C52.0751 70.9477 54.3578 69.89 56.6487 68.8561C63.6044 65.7169 66.8224 64.5658 74.0378 61.738C77.0117 60.6494 79.9737 59.5281 82.9594 58.4722C88.5168 56.5067 92.4963 55.2461 98.0058 53.4623C99.6087 52.9434 101.226 52.4683 102.816 51.9086C103.735 51.5849 105.189 51.7282 105.526 50.8139C105.804 50.0604 104.415 49.654 103.86 49.0741C103.186 49.0508 102.513 48.9825 101.839 49.0042C99.6481 49.0749 93.6057 49.6192 91.9145 49.7712C83.7264 50.507 75.5458 51.3252 67.3565 52.0474C57.5841 52.8978 58.6552 52.8161 48.8793 53.6205C38.6154 54.465 28.3357 55.224 18.1292 56.6348C16.3444 56.9107 14.5567 57.1683 12.7748 57.4626C9.31457 58.0342 8.21298 58.26 4.99525 58.9531C3.87014 59.1954 2.05792 59.5908 0.871055 59.9198C0.576618 60.0014 0.290352 60.1101 0 60.2052L1.56379 61.2589Z" fill="white"/>
</svg>
