<svg width="251" height="251" viewBox="0 0 251 251" fill="none" xmlns="http://www.w3.org/2000/svg">
<g id="Frame">
<path id="Vector" d="M125.5 10.04C121.912 10.04 118.343 10.9421 115.127 12.7461L30.5711 60.2596C24.1392 63.8874 20.0801 70.6526 20.0801 77.9865V173.014C20.0801 180.367 24.1392 187.132 30.5711 190.76L115.127 238.254C121.559 241.882 129.442 241.882 135.873 238.254L220.429 190.76C226.881 187.132 230.92 180.347 230.92 173.014V77.9865C230.92 70.6526 226.861 63.8874 220.429 60.2596L135.873 12.7461C132.658 10.9421 129.089 10.04 125.5 10.04ZM125.5 20.08C127.383 20.08 129.285 20.5507 130.971 21.4919L215.527 69.0054C218.88 70.9075 220.88 74.3196 220.88 77.9865V120.48H210.84V110.44H200.8V120.48H190.76V130.52H200.8V140.56H210.84V130.52H220.88V173.014C220.88 176.681 218.88 180.093 215.507 181.995L130.971 229.508C127.598 231.391 123.402 231.391 120.029 229.508L35.493 181.995C32.1202 180.093 30.1201 176.7 30.1201 173.014V77.9865C30.1201 74.3196 32.1202 70.9075 35.493 69.0054L120.029 21.4919C121.715 20.5507 123.618 20.08 125.5 20.08ZM125.5 60.24C89.5561 60.24 60.2401 89.5561 60.2401 125.5C60.2401 161.444 89.5561 190.76 125.5 190.76C146.031 190.76 165.091 181.191 177.406 164.974L180.838 160.444L150.443 142.835L147.698 145.815C142.031 152.012 133.991 155.62 125.5 155.62C108.852 155.62 95.3801 142.148 95.3801 125.5C95.3801 108.852 108.852 95.38 125.5 95.38C133.991 95.38 142.031 98.9882 147.698 105.185L150.443 108.165L180.838 90.5561L177.406 86.0264C165.091 69.8094 146.031 60.24 125.5 60.24ZM125.5 70.28C140.933 70.28 155.051 76.8884 165.386 87.9089L151.62 95.8703C144.364 89.5168 135.344 85.34 125.5 85.34C103.4 85.34 85.3401 103.4 85.3401 125.5C85.3401 147.6 103.4 165.66 125.5 165.66C135.344 165.66 144.364 161.483 151.62 155.13L165.386 163.091C155.051 174.112 140.933 180.72 125.5 180.72C95.0075 180.72 70.2801 155.993 70.2801 125.5C70.2801 95.0075 95.0075 70.28 125.5 70.28ZM165.66 110.44V120.48H155.62V130.52H165.66V140.56H175.7V130.52H185.74V120.48H175.7V110.44H165.66Z" fill="white"/>
</g>
</svg>
