<?xml version="1.0" encoding="UTF-8" standalone="no"?>
<!-- Created with Inkscape (http://www.inkscape.org/) -->

<svg
   width="512"
   height="512"
   viewBox="0 0 512 512"
   version="1.1"
   id="svg1"
   inkscape:version="1.3 (0e150ed6c4, 2023-07-21)"
   sodipodi:docname="Logo.svg"
   xmlns:inkscape="http://www.inkscape.org/namespaces/inkscape"
   xmlns:sodipodi="http://sodipodi.sourceforge.net/DTD/sodipodi-0.dtd"
   xmlns="http://www.w3.org/2000/svg"
   xmlns:svg="http://www.w3.org/2000/svg">
  <sodipodi:namedview
     id="namedview1"
     pagecolor="#ffffff"
     bordercolor="#000000"
     borderopacity="0.25"
     inkscape:showpageshadow="2"
     inkscape:pageopacity="0.0"
     inkscape:pagecheckerboard="0"
     inkscape:deskcolor="#d1d1d1"
     inkscape:document-units="px"
     inkscape:zoom="1.9003495"
     inkscape:cx="318.09939"
     inkscape:cy="224.4324"
     inkscape:window-width="2880"
     inkscape:window-height="1676"
     inkscape:window-x="-12"
     inkscape:window-y="-12"
     inkscape:window-maximized="1"
     inkscape:current-layer="layer1" />
  <defs
     id="defs1" />
  <g
     inkscape:label="Layer 1"
     inkscape:groupmode="layer"
     id="layer1">
    <path
       style="fill:#000000"
       id="path3"
       d="m 112.92028,164.63703 c -0.46301,1.0165 -0.95784,2.0191 -1.38904,3.0495 -4.35182,10.39911 -8.09708,21.10482 -11.21285,31.93535 -1.13753,3.9541 -2.140606,7.94566 -3.210911,11.91849 -3.362888,13.97402 -6.770712,27.95351 -9.338651,42.1021 -1.225012,6.74945 -2.929476,17.42594 -3.295352,24.50713 -0.151991,2.94163 0.08747,5.89045 0.131208,8.83568 0.731996,1.92824 0.677454,4.38902 2.195987,5.78471 2.532431,2.32759 5.777652,4.28774 9.194322,4.68424 5.407757,0.62756 12.346597,-8.97965 14.221987,-11.26997 2.90246,-3.54463 5.47677,-7.34594 8.25354,-10.98988 2.85081,-3.7411 5.75252,-7.44314 8.62878,-11.16471 0,0 -0.25979,-0.15468 -0.25979,-0.15468 v 0 c -2.87592,3.721 -5.49227,7.65794 -8.62776,11.163 -5.18619,5.79746 -12.90429,12.84211 -19.890371,16.70019 -2.076353,1.14668 -4.622675,1.19646 -6.756876,2.23149 -0.306141,0.14847 0.21612,1.31836 0.05383,1.01931 -1.014464,-1.86936 -1.76697,-3.86942 -2.650455,-5.80413 -0.212603,-3.00949 -0.658469,-6.01155 -0.637809,-9.02846 0.05067,-7.39915 1.458186,-17.68072 2.660592,-24.79216 2.394501,-14.16189 5.827379,-28.13873 9.396159,-42.04017 1.11395,-3.94373 2.16063,-7.90709 3.34184,-11.8312 3.54456,-11.77536 7.69709,-23.48115 13.8204,-34.18907 z" />
    <path
       style="fill:#000000"
       id="path4"
       d="m 128.56879,251.05655 c -1.56419,4.24393 -3.02609,8.5888 -3.77384,13.06536 -0.82021,7.72824 -0.2868,3.99604 -1.55415,11.20308 0,0 1.97292,1.06639 1.97292,1.06639 v 0 c 3.74209,-11.50915 -0.83559,1.96468 3.86885,-9.93241 1.63593,-4.13711 2.63154,-8.51687 4.44948,-12.58817 z" />
    <path
       style="fill:#000000"
       id="path5"
       d="m 127.85934,259.98782 c -2.94954,4.19849 -4.50973,9.15222 -6.00838,14.00211 -0.68136,2.20502 -1.45559,4.38962 -1.9431,6.64544 -0.52094,2.41047 -0.71667,4.87989 -1.075,7.31984 -0.4086,2.15407 -0.8172,4.30815 -1.2258,6.46223 0,0 0.97043,0.53264 0.97043,0.53264 v 0 c 0.87698,-1.89687 1.75396,-3.79374 2.63094,-5.69062 1.07219,-2.0476 2.29468,-4.02329 3.21658,-6.14282 0.90962,-2.0913 1.5,-4.30743 2.2635,-6.45639 0.68163,-1.91848 1.38846,-3.82793 2.07183,-5.7458 1.01583,-2.85091 1.89522,-5.78477 3.29817,-8.48164 z" />
    <path
       style="fill:#000000"
       id="path6"
       d="m 130.31765,262.45346 c 2.04002,-3.01782 4.89364,-5.28152 8.19039,-6.80726 1.05778,-0.48955 2.13207,-0.98455 3.26906,-1.24113 1.07248,-0.24202 2.19312,-0.15928 3.28968,-0.23892 1.01952,0.53039 3.39473,0.49222 3.05855,1.59118 -0.33648,1.09996 -3.12393,-1.48468 -3.43029,-0.37595 -0.51928,1.87932 1.59254,3.58748 2.01709,5.49044 0.60108,2.69423 0.83787,5.46275 1.04076,8.21576 0.59875,8.12401 0.25478,13.00213 0.0335,21.17928 0,0 0.31112,0.16327 0.31112,0.16327 v 0 c 0.49411,-2.2036 3.77587,-16.57685 4.11598,-19.09304 0.29881,-2.21066 1.12592,-10.59668 -0.97801,-13.16981 -4.63099,-5.66376 -6.87427,-6.16492 -12.01621,-8.15217 -1.10126,0.16298 -2.24204,0.1542 -3.30378,0.48894 -2.15579,0.67967 -4.0699,2.17235 -5.77449,3.57976 -1.89672,1.56604 -3.77796,3.26653 -4.82363,5.53832 z" />
    <path
       style="fill:#000000"
       id="path7"
       d="m 194.61042,241.50704 c -1.86785,-0.27111 -3.31472,-0.55716 -5.26331,-0.45259 -3.90245,0.20943 -7.80104,1.59185 -11.23892,3.39015 -1.34642,0.70429 -2.59787,1.57688 -3.8968,2.36532 -1.24645,1.04387 -2.55151,2.02151 -3.73934,3.13162 -3.9997,3.73801 -8.1397,8.90973 -10.43833,13.9195 -0.45622,0.99433 -0.74336,2.05784 -1.11503,3.08676 -0.25185,1.81186 -0.77015,3.33601 0.0749,5.10192 1.43784,3.00456 9.63548,5.97248 9.89355,6.07775 0.58542,0.23879 5.51084,0.3275 6.01151,0.34243 -1.68663,-0.18996 8.41707,1.28395 6.33941,2.07617 -1.10307,0.42061 -2.56467,-2.28119 -3.27809,-1.3406 -0.71105,0.93746 1.62589,1.73262 2.20306,2.75794 1.66898,2.96488 1.34771,4.2816 1.56602,7.65041 -0.40709,1.54157 -0.5583,3.17467 -1.22127,4.62472 -2.60232,5.69179 -7.82828,9.26432 -12.77317,12.69565 -5.82111,4.03935 -3.41822,2.69547 -9.66149,5.1387 0,0 0.24853,0.17222 0.24853,0.17222 v 0 c 5.05255,-0.54117 8.89458,-0.63998 13.7535,-2.51153 5.71694,-2.20204 11.54741,-6.71037 14.33669,-12.27569 0.74136,-1.47919 0.97942,-3.16089 1.46913,-4.74133 -0.0711,-3.87588 0.37536,-4.57046 -1.38886,-8.02698 -2.27885,-4.46482 -6.1676,-5.82862 -10.72104,-8.46584 -0.96554,-0.55921 -2.03288,-0.94338 -3.1069,-1.24585 -1.06615,-0.30027 -2.18448,-0.368 -3.27673,-0.55199 -1.0602,-0.0681 -2.12403,-0.0933 -3.1806,-0.20438 -3.59921,-0.37838 -4.87554,-1.43833 0.79654,2.23569 0.6171,0.39972 -1.29828,-0.78474 -1.70892,-1.39464 -1.05618,-1.56868 -0.66238,-3.20615 -0.58436,-4.93455 0.74095,-2.66213 0.98267,-4.03076 2.30709,-6.56114 0.64044,-1.22361 1.40712,-2.38009 2.2,-3.51088 2.72595,-3.88772 6.01425,-7.30443 9.85762,-10.10128 1.28115,-0.76952 2.51537,-1.6232 3.84345,-2.30855 4.93737,-2.5479 10.50884,-3.9226 16.02438,-2.84896 z" />
    <path
       style="fill:#000000"
       id="path8"
       d="m 219.77683,250.22007 c -0.65364,0.43151 -1.35225,0.80161 -1.96091,1.29454 -5.57548,4.51535 -10.36935,10.98665 -13.86507,17.18544 -0.99029,1.75603 -1.82262,3.59658 -2.73393,5.39487 -1.22715,3.00537 -3.97203,8.09117 -2.22815,11.52441 1.50461,2.96222 10.08258,5.141 10.51775,5.21558 1.2003,0.20574 2.28206,-0.85111 3.42309,-1.27667 1.22525,-0.77907 2.53238,-1.44231 3.67576,-2.33722 5.98124,-4.68144 9.80184,-11.44024 13.6708,-17.81405 0,0 -0.25996,-0.1544 -0.25996,-0.1544 v 0 c -5.25174,5.6762 -10.59705,11.58157 -17.51152,15.28334 -1.35446,0.72512 -2.81847,1.22381 -4.2277,1.83572 -6.5268,1.34254 -3.13042,-0.47472 -1.08558,3.66065 0.35274,0.71336 -1.51219,-0.71928 -1.94155,-1.38933 -2.02558,-3.16106 0.45496,-8.49488 1.50627,-11.39321 0.88893,-1.79141 1.70716,-3.61966 2.66678,-5.37421 2.12731,-3.88952 4.23503,-7.15224 6.93095,-10.66047 2.33775,-3.04213 4.84589,-5.8858 8.18138,-7.84809 z" />
    <path
       style="fill:#000000"
       id="path9"
       d="m 228.05873,250.13269 c -0.41836,0.95345 -0.91417,1.87655 -1.25509,2.86036 -0.69732,2.01227 -3.10487,10.92245 -3.43319,12.17494 -1.53728,5.8644 -3.25422,12.74982 -4.46013,18.66116 -0.69214,3.39285 -1.24616,6.81242 -1.86923,10.21864 -0.24286,3.40906 -0.48571,6.81812 -0.72856,10.22719 0,0 1.28791,0.69019 1.28791,0.69019 v 0 c 1.0932,-2.94924 2.18639,-5.89848 3.27959,-8.84772 2.72162,-9.29334 5.29463,-18.63274 8.04778,-27.91629 4.03037,-13.59026 0.41348,-1.13782 3.84773,-11.90174 0.31808,-0.99694 0.56823,-2.0143 0.85234,-3.02144 z" />
    <path
       style="fill:#000000"
       id="path10"
       d="m 250.71878,253.04663 c -1.87475,5.16324 -3.66012,10.4157 -5.00331,15.74589 -0.64489,2.5591 -2.77218,13.15606 -3.31849,15.83948 0,0 1.13319,0.62228 1.13319,0.62228 v 0 c 1.04005,-2.31135 2.07388,-4.62551 3.12016,-6.93405 1.08901,-2.40284 2.2575,-4.77056 3.2857,-7.20005 2.1047,-4.97313 3.68183,-10.17306 6.06397,-15.03013 z" />
    <path
       style="fill:#000000"
       id="path11"
       d="m 253.49542,257.85161 c 2.00744,-2.53647 3.92961,-5.19149 6.44839,-7.26382 2.28529,-1.88023 2.99298,-2.07618 5.57806,-3.41255 1.91679,-0.60812 3.25112,-1.23348 5.28744,-1.14941 0.77332,0.0319 2.84818,0.98767 2.2742,0.46844 -1.15566,-1.04542 -2.61349,-1.87595 -4.14551,-2.16124 -0.68106,-0.12683 0.97957,1.01016 1.28998,1.62949 0.37736,0.75289 0.49189,1.61091 0.73784,2.41636 0.0565,1.02917 0.20634,2.05744 0.16966,3.08752 -0.15843,4.44905 -1.46047,8.88052 -2.73292,13.10614 -0.75903,2.52062 -2.77398,8.58684 -3.58877,11.06189 -0.57609,1.84285 -1.21352,3.66764 -1.72829,5.52856 -1.78113,6.43893 -3.25063,13.6781 -2.90178,20.39447 0.0594,1.14339 0.2691,2.27399 0.40365,3.41098 0.33293,0.82941 0.53962,1.72147 0.99879,2.48823 1.75694,2.93391 9.05742,5.37768 9.95411,5.64213 0.81205,0.23949 1.64629,-0.473 2.37101,-0.91069 2.73759,-1.65336 3.7128,-3.3575 5.7913,-5.8758 1.14323,-1.91593 2.39797,-3.76959 3.42971,-5.7478 1.35134,-2.59099 2.50112,-5.28248 3.7106,-7.94265 1.4244,-3.13287 2.80675,-6.28473 4.19067,-9.43568 1.4732,-3.35423 2.84646,-6.75293 4.38063,-10.07971 1.50832,-3.27071 3.16305,-6.47189 4.74458,-9.70784 0,0 -0.26209,-0.15077 -0.26209,-0.15077 v 0 c -7.61238,12.09386 -3.86966,6.24216 -11.70448,18.308 -4.6562,7.17069 -9.27834,14.37719 -14.75662,20.96509 -2.03704,2.11222 -3.38779,3.94817 -5.98338,5.28715 -0.65528,0.33804 -2.5271,-0.0184 -2.12851,0.60195 1.05352,1.63959 3.13639,2.31466 4.72656,3.4414 0.5908,0.41863 -1.27656,-0.75029 -1.7278,-1.31658 -0.55034,-0.69066 -0.80163,-1.57383 -1.20244,-2.36074 -0.21032,-1.13813 -0.51838,-2.26247 -0.63097,-3.41437 -0.28826,-2.94935 -0.0805,-6.27315 0.27174,-9.18539 0.68987,-5.70397 2.05408,-11.30767 3.81952,-16.76814 1.20099,-3.68988 2.45773,-7.36161 3.63922,-11.05778 1.35591,-4.2418 2.81975,-8.65432 3.14922,-13.13256 0.0784,-1.06518 -0.0288,-2.13593 -0.0432,-3.20389 -0.20661,-0.88098 -0.27444,-1.80658 -0.61983,-2.64295 -0.29221,-0.7076 -0.63623,-1.47908 -1.26358,-1.91784 -2.41958,-1.69223 -5.02581,-3.13135 -7.71113,-4.35897 -1.73766,-0.79439 -5.81466,0.6451 -7.36277,1.31677 -0.93859,0.53377 -1.91348,1.00823 -2.81577,1.60131 -3.68018,2.41903 -6.65135,5.85077 -8.87475,9.62561 z" />
    <path
       style="fill:#000000"
       id="path12"
       d="m 384.39608,212.0362 c -2.97126,-1.08714 -5.97466,-1.29585 -9.12833,-1.05166 -1.85842,0.1439 -3.73737,0.26887 -5.54482,0.72445 -4.90044,1.23519 -8.41627,3.29712 -12.9202,5.53158 -2.15723,1.48164 -4.43318,2.80379 -6.4717,4.44492 -2.27951,1.83515 -4.47405,3.79749 -6.44898,5.95701 -6.51129,7.1199 -11.89626,16.06074 -15.00678,25.19969 -0.97056,2.85157 -1.48046,5.8397 -2.22069,8.75955 -0.17252,2.76415 -0.68055,5.52772 -0.51757,8.29246 0.29503,5.00469 1.70196,9.61977 4.7512,13.64448 3.98548,5.26047 11.89877,8.99139 17.39144,11.03017 2.29832,0.8531 4.86495,0.61032 7.29742,0.91548 2.6884,-0.5105 5.45403,-0.71302 8.06519,-1.53152 9.32281,-2.92234 17.56364,-8.92106 24.57117,-15.55959 2.46432,-2.33455 4.67024,-4.92756 7.00537,-7.39134 0,0 -0.31609,-0.19619 -0.31609,-0.19619 v 0 c -2.83339,2.14613 -5.57164,4.42401 -8.50016,6.43839 -7.89912,5.4334 -18.16244,11.29803 -27.65319,13.25363 -2.88965,0.59543 -5.87904,0.50545 -8.81856,0.75818 -2.45851,-0.4077 -4.8865,-1.09963 -7.37551,-1.22311 -0.28507,-0.0141 0.17996,1.01833 -0.0538,0.85455 -4.03887,-2.83005 -6.71333,-5.73535 -8.53719,-10.41266 -2.45193,-6.28802 -1.64482,-9.03713 -1.4113,-15.68936 0.66948,-2.91968 1.10549,-5.90293 2.00845,-8.75906 2.84107,-8.98653 8.158,-18.19858 14.44353,-25.2186 1.92868,-2.15405 4.08946,-4.1036 6.3348,-5.9252 2.00781,-1.62889 4.2595,-2.93172 6.38926,-4.39757 2.16624,-1.06884 4.26316,-2.29151 6.49874,-3.20652 5.11426,-2.09322 10.52929,-3.30934 16.06405,-2.7814 1.45966,0.13923 3.17962,0.67312 4.62573,1.08273 z" />
    <path
       style="fill:#000000"
       id="path13"
       d="m 415.61887,256.60576 c -1.80253,0.13506 -2.76246,0.10894 -4.58135,0.74096 -3.29385,1.14453 -6.30315,3.45935 -8.65032,5.99219 -0.98505,1.06297 -1.81012,2.26371 -2.71518,3.39556 -2.32134,3.73938 -4.06594,7.79567 -5.03937,12.09469 -0.41166,1.81803 -0.87056,4.79785 -0.55929,6.73098 0.14925,0.92692 0.60784,1.77661 0.91176,2.66492 0.5468,0.6864 0.90702,1.57723 1.64038,2.0592 5.44382,3.57772 9.3122,6.54459 15.52606,4.82697 2.99252,-0.82719 3.6276,-1.62654 6.09528,-3.41455 0.77602,-0.89955 1.68058,-1.70257 2.32806,-2.69864 2.59641,-3.99427 3.60571,-10.32459 2.21645,-14.89125 -0.36887,-1.21253 -1.04902,-2.30755 -1.57354,-3.46133 -3.05223,-3.68677 -1.38021,-2.10583 -4.9431,-4.81884 0,0 -2.31555,-0.93674 -2.31555,-0.93674 v 0 c 1.83055,1.85669 1.07074,0.75677 2.17099,3.3721 0.19737,0.94543 0.47792,1.87725 0.5921,2.83629 0.55242,4.64008 0.007,10.00618 -2.62753,13.99181 -0.62246,0.94152 -1.48327,1.70165 -2.2249,2.55247 -0.91747,0.64574 -1.76111,1.41182 -2.75242,1.93721 -1.93487,1.02547 -4.15154,1.57746 -6.34608,1.5082 -1.02274,-0.0323 -3.36015,-1.49651 -3.02363,-0.53018 0.50176,1.44087 2.33452,2.05721 3.75198,2.6217 0.8103,0.3227 -1.22669,-1.24019 -1.84004,-1.86028 -0.36444,-0.82711 -0.88668,-1.60144 -1.09333,-2.48134 -0.45211,-1.92511 -0.14584,-4.82652 0.19786,-6.6795 0.79192,-4.26943 2.38401,-8.32897 4.63473,-12.03575 0.77224,-1.16879 1.44274,-2.41158 2.31672,-3.50637 2.57478,-3.22531 6.23122,-5.84094 10.29763,-6.74759 0.5792,-0.12914 1.18075,-0.12007 1.77112,-0.1801 z" />
    <path
       style="fill:#000000"
       id="path14"
       d="m 430.65456,295.42462 c 1.86194,1.32543 3.83047,2.46669 5.67368,3.8174 0,0 2.15208,0.86361 2.15208,0.86361 v 0 c -1.02762,-0.92822 -1.07285,-0.58829 -0.64033,-1.64478 z" />
    <path
       style="fill:#000000"
       id="path15"
       d="m 432.20939,296.88694 c -1.72972,1.97123 -2.234,3.81897 -2.68595,6.33012 0,0 3.6074,2.14622 3.6074,2.14622 v 0 c 2.34593,-1.23695 4.16033,-2.29114 5.60736,-4.60909 z" />
    <path
       style="fill:#000000"
       id="path16"
       d="m 48.659117,372.3112 c 13.152681,-3.60263 26.438292,-6.70196 39.844001,-9.21437 5.541624,-1.03858 11.109366,-1.9326 16.664052,-2.8989 6.57912,-0.95694 13.14587,-2.00321 19.73737,-2.87082 25.3951,-3.34266 50.91956,-5.67798 76.42486,-7.97914 19.55013,-1.76387 39.10822,-3.4382 58.66223,-5.15849 26.36427,-2.2718 52.70972,-4.8178 79.11188,-6.63003 8.0182,-0.55036 24.26823,-1.66944 33.16802,-1.31015 2.49732,0.10082 4.95069,0.69118 7.42604,1.03677 -2.05831,-0.55672 -4.06552,-1.98157 -6.17492,-1.67017 -2.65865,0.39249 -4.72624,2.57499 -7.19217,3.64347 -4.67964,2.02769 -9.461,3.8135 -14.22422,5.63623 -6.90666,2.64297 -13.85789,5.16799 -20.78376,7.76024 -30.78345,11.52182 -21.13113,7.90015 -53.29058,20.15302 -25.95998,10.51318 -52.13418,20.56672 -77.29906,32.92016 -0.92195,0.45259 -19.66443,9.44882 -22.75484,13.49086 -0.61509,0.8045 0.70901,1.89724 1.06351,2.84586 4.99344,0.85722 9.91386,2.55711 14.98033,2.57166 6.12147,0.0176 12.14462,-1.55743 18.19674,-2.47639 9.96078,-1.51244 19.87176,-3.34453 29.83848,-4.81727 13.77566,-2.03556 27.58938,-3.80463 41.38408,-5.70694 0,0 -0.24681,-0.17467 -0.24681,-0.17467 v 0 c -14.21862,1.60333 -28.4404,3.17888 -42.65586,4.80999 -10.4771,1.20216 -20.93891,2.53768 -31.42162,3.68979 -6.31961,0.69457 -12.72247,0.74319 -18.98305,1.84999 -2.10706,0.3725 -3.92801,1.69842 -5.89201,2.54763 -0.81013,-0.9165 -2.8919,-1.61669 -2.43037,-2.7495 2.22785,-5.46821 19.03317,-13.85486 20.68118,-14.71741 7.09457,-3.71322 14.3672,-7.08287 21.66586,-10.37688 22.16069,-10.00148 32.41329,-13.66893 55.40122,-22.67824 9.47463,-3.46821 18.91182,-7.04046 28.42389,-10.40461 17.706,-6.2621 30.38457,-10.27819 47.93751,-15.96135 5.10681,-1.65345 10.26069,-3.16717 15.3237,-4.95024 2.92816,-1.03122 7.56238,-0.57464 8.63561,-3.48766 0.88444,-2.40056 -3.53898,-3.69532 -5.30847,-5.54298 -2.14562,-0.0742 -4.29107,-0.29184 -6.43686,-0.22265 -6.98159,0.22509 -26.23236,1.95946 -31.62064,2.44364 -26.08697,2.34416 -52.1503,4.95107 -78.2413,7.25204 -31.13457,2.7091 -27.72198,2.449 -58.86776,5.01173 -32.70076,2.69066 -65.45159,5.1088 -97.9692,9.60347 -5.68629,0.87917 -11.381942,1.69978 -17.058871,2.6375 -11.024376,1.821 -14.53401,2.54023 -24.785628,4.74845 -3.584565,0.77212 -9.358263,2.03171 -13.139585,3.08005 -0.93807,0.26007 -1.850109,0.60626 -2.775163,0.90939 z" />
  </g>
</svg>
