<svg width="241" height="241" viewBox="0 0 241 241" fill="none" xmlns="http://www.w3.org/2000/svg">
<path id="Vector" d="M120.5 0.439941C99.3141 0.439941 84.9387 5.49682 75.8037 12.8374C66.6687 20.1781 63.0799 29.6189 63.0799 37.4693V63.0799H115.28V68.2999H37.4693C27.9265 68.2999 18.241 72.4392 11.3693 81.1868C4.49768 89.9344 0.439941 102.984 0.439941 120.5C0.439941 138.015 4.49768 151.065 11.3693 159.813C18.241 168.561 27.9265 172.7 37.4693 172.7H63.0799V203.531C63.0799 211.381 66.6687 220.822 75.8037 228.162C84.9387 235.503 99.3141 240.56 120.5 240.56C141.686 240.56 156.061 235.503 165.196 228.162C174.331 220.822 177.92 211.381 177.92 203.531V177.92H125.72V172.7H203.531C213.073 172.7 222.759 168.561 229.631 159.813C236.502 151.065 240.56 138.015 240.56 120.5C240.56 102.984 236.502 89.9344 229.631 81.1868C222.759 72.4392 213.073 68.2999 203.531 68.2999H177.92V37.4693C177.92 29.415 174.352 19.9538 165.196 12.6743C156.041 5.39486 141.665 0.439941 120.5 0.439941ZM120.5 10.8799C140.055 10.8799 151.902 15.4474 158.671 20.8306C165.441 26.2137 167.48 32.4736 167.48 37.4693V99.6199C167.48 108.266 160.466 115.28 151.82 115.28H89.1799C78.4341 115.28 69.1767 121.907 65.2006 131.266C64.5277 132.816 63.916 134.468 63.5693 136.16C63.2227 137.852 63.0799 139.586 63.0799 141.38V162.26H37.4693C30.8424 162.26 24.7048 159.67 19.6887 153.288C14.6726 146.906 10.8799 136.384 10.8799 120.5C10.8799 104.616 14.6726 94.0941 19.6887 87.7118C24.7048 81.3296 30.8424 78.7399 37.4693 78.7399H125.72V52.6399H73.5199V37.4693C73.5199 32.7999 75.5386 26.438 82.3287 20.9937C89.1188 15.5494 100.966 10.8799 120.5 10.8799ZM94.3999 26.5399C88.6498 26.5399 83.9599 31.2298 83.9599 36.9799C83.9599 42.7301 88.6498 47.4199 94.3999 47.4199C100.15 47.4199 104.84 42.7301 104.84 36.9799C104.84 31.2298 100.15 26.5399 94.3999 26.5399ZM177.92 78.7399H203.531C210.158 78.7399 216.295 81.3296 221.311 87.7118C226.327 94.0941 230.12 104.616 230.12 120.5C230.12 136.384 226.327 146.906 221.311 153.288C216.295 159.67 210.158 162.26 203.531 162.26H115.28V188.36H167.48V203.531C167.48 208.2 165.461 214.562 158.671 220.006C151.881 225.45 140.034 230.12 120.5 230.12C100.966 230.12 89.1188 225.45 82.3287 220.006C75.5386 214.562 73.5199 208.2 73.5199 203.531V141.38C73.5199 140.299 73.6423 139.3 73.8462 138.281C75.3143 131.144 81.615 125.72 89.1799 125.72H151.82C166.155 125.72 177.92 113.955 177.92 99.6199V78.7399ZM146.6 193.58C140.85 193.58 136.16 198.27 136.16 204.02C136.16 209.77 140.85 214.46 146.6 214.46C152.35 214.46 157.04 209.77 157.04 204.02C157.04 198.27 152.35 193.58 146.6 193.58Z" fill="white"/>
</svg>
